<!--
List icons
* svg-circle-x
* svg-share
* svg-add
* svg-x-mark
-->
<svg xmlns="http://www.w3.org/2000/svg">
	<symbol  id="svg-circle-x" xmlns="http://www.w3.org/2000/svg" viewBox="0 0 512 512"><path d="M256 48a208 208 0 1 1 0 416 208 208 0 1 1 0-416zm0 464A256 256 0 1 0 256 0a256 256 0 1 0 0 512zM175 175c-9.4 9.4-9.4 24.6 0 33.9l47 47-47 47c-9.4 9.4-9.4 24.6 0 33.9s24.6 9.4 33.9 0l47-47 47 47c9.4 9.4 24.6 9.4 33.9 0s9.4-24.6 0-33.9l-47-47 47-47c9.4-9.4 9.4-24.6 0-33.9s-24.6-9.4-33.9 0l-47 47-47-47c-9.4-9.4-24.6-9.4-33.9 0z"/></symbol>
<symbol id="svg-share" xmlns="http://www.w3.org/2000/svg" viewBox="0 0 448 512"><path d="M352 224c53 0 96-43 96-96s-43-96-96-96s-96 43-96 96c0 4 .2 8 .7 11.9l-94.1 47C145.4 170.2 121.9 160 96 160c-53 0-96 43-96 96s43 96 96 96c25.9 0 49.4-10.2 66.6-26.9l94.1 47c-.5 3.9-.7 7.8-.7 11.9c0 53 43 96 96 96s96-43 96-96s-43-96-96-96c-25.9 0-49.4 10.2-66.6 26.9l-94.1-47c.5-3.9 .7-7.8 .7-11.9s-.2-8-.7-11.9l94.1-47C302.6 213.8 326.1 224 352 224z"/>
</symbol>
<symbol id="svg-add"  xmlns="http://www.w3.org/2000/svg" viewBox="0 0 448 512"><path d="M256 80c0-17.7-14.3-32-32-32s-32 14.3-32 32l0 144L48 224c-17.7 0-32 14.3-32 32s14.3 32 32 32l144 0 0 144c0 17.7 14.3 32 32 32s32-14.3 32-32l0-144 144 0c17.7 0 32-14.3 32-32s-14.3-32-32-32l-144 0 0-144z"/>
</symbol>
<symbol id="svg-x-mark" xmlns="http://www.w3.org/2000/svg" viewBox="0 0 384 512"><path d="M342.6 150.6c12.5-12.5 12.5-32.8 0-45.3s-32.8-12.5-45.3 0L192 210.7 86.6 105.4c-12.5-12.5-32.8-12.5-45.3 0s-12.5 32.8 0 45.3L146.7 256 41.4 361.4c-12.5 12.5-12.5 32.8 0 45.3s32.8 12.5 45.3 0L192 301.3 297.4 406.6c12.5 12.5 32.8 12.5 45.3 0s12.5-32.8 0-45.3L237.3 256 342.6 150.6z"/>
</symbol>
</svg>
